<svg xmlns="http://www.w3.org/2000/svg" xmlns:xlink="http://www.w3.org/1999/xlink" version="1.1" x="0px" y="0px" viewBox="0 0 100 125" style="enable-background:new 0 0 100 100;" xml:space="preserve"><path d="M50,5C25.1,5,5,25.1,5,50c0,24.9,20.1,45,45,45c24.9,0,45-20.1,45-45C95,25.1,74.9,5,50,5z M50,91.1  C27.4,91.1,8.9,72.6,8.9,50C8.9,27.4,27.4,8.9,50,8.9c22.6,0,41.1,18.4,41.1,41.1C91.1,72.6,72.6,91.1,50,91.1z M79.8,50L63.3,66.8  l-2.8-2.8l13.7-14L60.2,36l2.8-2.8L79.8,50z M39.8,36L25.8,50l13.7,14l-2.8,2.8L20.2,50L37,33.2L39.8,36z M52.4,29.3l3.8,0.8  l-8.7,40.6l-3.8-0.8L52.4,29.3z"/></svg>